# Blender v2.82 (sub 7) OBJ File: ''
# www.blender.org
mtllib capsuleB.mtl
o capsule
v -0.281496 -0.349897 -0.543110
v -0.226230 -0.280595 -0.727172
v 0.077399 -0.349897 -0.727172
v 0.097124 -0.436314 -0.543110
v -0.126644 -0.155719 0.854539
v -0.226230 -0.280595 0.727164
v 0.077399 -0.349897 0.727164
v 0.041858 -0.194178 0.854539
v -0.126644 -0.155719 -0.854547
v 0.041858 -0.194178 -0.854547
v -0.281496 -0.349897 0.543102
v 0.097124 -0.436314 0.543102
v 0.176985 -0.086417 -0.854547
v 0.320891 -0.155719 -0.727172
v 0.400752 -0.194178 0.543102
v 0.320891 -0.155719 0.727164
v 0.400752 -0.194178 -0.543110
v 0.176985 -0.086417 0.854539
v 0.400752 0.194178 -0.543110
v 0.400752 0.194178 0.543102
v 0.320891 0.155719 -0.727172
v 0.320891 0.155719 0.727164
v 0.176985 0.086417 0.854539
v 0.176985 0.086417 -0.854547
v 0.077399 0.349897 0.727164
v 0.041858 0.194178 0.854539
v 0.041858 0.194178 -0.854547
v 0.077399 0.349897 -0.727172
v 0.097124 0.436314 0.543102
v 0.097124 0.436314 -0.543110
v -0.281496 0.349897 -0.543110
v -0.281496 0.349897 0.543102
v -0.226230 0.280595 -0.727172
v -0.226230 0.280595 0.727164
v -0.126644 0.155719 0.854539
v -0.126644 0.155719 -0.854547
v -0.201634 0.000000 -0.854547
v -0.361357 0.000000 -0.727172
v -0.449997 0.000000 0.543102
v -0.361357 0.000000 0.727164
v -0.002462 0.000000 0.900000
v -0.201634 0.000000 0.854539
v -0.449997 0.000000 -0.543107
v -0.002462 0.000000 -0.900000
v -0.449997 0.000000 -0.543107
vt 0.873244 0.695239
vt 0.822000 0.623504
vt 0.866658 0.525469
vt 0.955693 0.531208
vt 0.310438 0.521985
vt 0.376328 0.522098
vt 0.332891 0.621121
vt 0.291898 0.569536
vt 0.781812 0.571631
vt 0.801033 0.524396
vt 0.466090 0.526511
vt 0.385407 0.694051
vt 0.853477 0.003399
vt 0.853477 0.263276
vt 0.712087 0.263276
vt 0.712086 0.003399
vt 0.776137 0.479897
vt 0.818070 0.429108
vt 0.204113 0.735430
vt 0.228389 0.648900
vt 0.570696 0.263277
vt 0.570696 0.003399
vt 0.878651 0.362668
vt 0.243161 0.584687
vt 0.429305 0.263277
vt 0.429305 0.003399
vt 0.712036 0.407045
vt 0.697490 0.317591
vt 0.141515 0.584517
vt 0.200928 0.556031
vt 0.725799 0.471681
vt 0.058727 0.619488
vt 0.137686 0.476455
vt 0.197002 0.505145
vt 0.688216 0.505984
vt 0.628984 0.476769
vt 0.058727 0.433533
vt 0.287914 0.263277
vt 0.287914 0.003399
vt 0.548389 0.432780
vt 0.146523 0.263277
vt 0.146523 0.003400
vt 0.633748 0.582734
vt 0.548389 0.624725
vt 0.219786 0.406085
vt 0.234337 0.470348
vt 0.691468 0.556410
vt 0.204113 0.317591
vt 0.732822 0.586203
vt 0.716047 0.651698
vt 0.385407 0.358970
vt 0.325991 0.426398
vt 0.251798 0.526511
vt 0.284821 0.477842
vt 0.697610 0.735259
vt 0.742469 0.528028
vt 0.994868 0.003399
vt 0.994868 0.263275
vt 0.697610 0.735259
vt 0.005132 0.263276
vt 0.005132 0.003400
vn -0.2041 -0.8944 -0.3980
vn -0.1475 -0.6462 0.7488
vn -0.1475 -0.6462 -0.7488
vn -0.2041 -0.8944 0.3980
vn -0.2225 -0.9749 0.0000
vn 0.4132 -0.5182 -0.7488
vn 0.5720 -0.7172 0.3980
vn 0.6235 -0.7818 0.0000
vn 0.5720 -0.7172 -0.3980
vn 0.4132 -0.5182 0.7488
vn 1.0000 0.0000 0.0000
vn 0.9174 0.0000 -0.3980
vn 0.6628 0.0000 0.7488
vn 0.6628 0.0000 -0.7488
vn 0.9174 0.0000 0.3980
vn 0.4132 0.5182 0.7488
vn 0.4132 0.5182 -0.7488
vn 0.5720 0.7172 0.3980
vn 0.6235 0.7818 0.0000
vn 0.5720 0.7172 -0.3980
vn -0.2225 0.9749 0.0000
vn -0.2041 0.8944 -0.3980
vn -0.1475 0.6462 0.7488
vn -0.1475 0.6462 -0.7488
vn -0.2041 0.8944 0.3980
vn -0.5972 0.2876 -0.7488
vn -0.8265 0.3980 0.3980
vn -0.2213 -0.1066 0.9694
vn -0.8265 -0.3980 -0.3980
vn -0.5972 -0.2876 0.7488
vn -0.5972 -0.2876 -0.7488
vn -0.8265 -0.3980 0.3980
vn -0.2212 -0.1065 -0.9694
vn -0.9010 -0.4339 0.0000
vn -0.0546 -0.2394 -0.9694
vn -0.0546 -0.2394 0.9694
vn 0.1531 -0.1920 -0.9694
vn 0.1531 -0.1920 0.9694
vn 0.2456 0.0000 0.9694
vn 0.2455 0.0000 -0.9694
vn 0.1531 0.1920 -0.9694
vn 0.1531 0.1920 0.9694
vn -0.0546 0.2394 -0.9694
vn -0.0546 0.2394 0.9694
vn -0.8265 0.3980 -0.3980
vn -0.5972 0.2876 0.7488
vn -0.2212 0.1065 -0.9694
vn -0.9010 0.4339 0.0000
vn -0.2213 0.1066 0.9694
usemtl Default_OBJ
s 1
f 1/1/1 2/2/1 3/3/1 4/4/1
f 5/5/2 6/6/2 7/7/2 8/8/2
f 2/2/3 9/9/3 10/10/3 3/3/3
f 6/6/4 11/11/4 12/12/4 7/7/4
f 11/13/5 1/14/5 4/15/5 12/16/5
f 3/3/6 10/10/6 13/17/6 14/18/6
f 7/7/7 12/12/7 15/19/7 16/20/7
f 12/16/8 4/15/8 17/21/8 15/22/8
f 4/4/9 3/3/9 14/18/9 17/23/9
f 8/8/10 7/7/10 16/20/10 18/24/10
f 15/22/11 17/21/11 19/25/11 20/26/11
f 17/23/12 14/18/12 21/27/12 19/28/12
f 18/24/13 16/20/13 22/29/13 23/30/13
f 14/18/14 13/17/14 24/31/14 21/27/14
f 16/20/15 15/19/15 20/32/15 22/29/15
f 23/30/16 22/29/16 25/33/16 26/34/16
f 21/27/17 24/31/17 27/35/17 28/36/17
f 22/29/18 20/32/18 29/37/18 25/33/18
f 20/26/19 19/25/19 30/38/19 29/39/19
f 19/28/20 21/27/20 28/36/20 30/40/20
f 29/39/21 30/38/21 31/41/21 32/42/21
f 30/40/22 28/36/22 33/43/22 31/44/22
f 26/34/23 25/33/23 34/45/23 35/46/23
f 28/36/24 27/35/24 36/47/24 33/43/24
f 25/33/25 29/37/25 32/48/25 34/45/25
f 33/43/26 36/47/26 37/49/26 38/50/26
f 34/45/27 32/48/27 39/51/27 40/52/27
f 41/53/28 42/54/28 5/5/28
f 43/55/29 38/50/29 2/2/29 1/1/29
f 42/54/30 40/52/30 6/6/30 5/5/30
f 38/50/31 37/49/31 9/9/31 2/2/31
f 40/52/32 39/51/32 11/11/32 6/6/32
f 37/49/33 44/56/33 9/9/33
f 39/57/34 43/58/34 1/14/34 11/13/34
f 9/9/35 44/56/35 10/10/35
f 41/53/36 5/5/36 8/8/36
f 10/10/37 44/56/37 13/17/37
f 41/53/38 8/8/38 18/24/38
f 41/53/39 18/24/39 23/30/39
f 13/17/40 44/56/40 24/31/40
f 24/31/41 44/56/41 27/35/41
f 41/53/42 23/30/42 26/34/42
f 27/35/43 44/56/43 36/47/43
f 41/53/44 26/34/44 35/46/44
f 31/44/45 33/43/45 38/50/45 45/59/45
f 35/46/46 34/45/46 40/52/46 42/54/46
f 36/47/47 44/56/47 37/49/47
f 32/42/48 31/41/48 45/60/48 39/61/48
f 41/53/49 35/46/49 42/54/49
